<svg width="96" height="96" viewBox="0 0 96 96" fill="none" xmlns="http://www.w3.org/2000/svg">
<g id="01">
<g id="Ellipse 270">
<circle cx="48" cy="48" r="48" transform="matrix(-1 0 0 1 96 0)" fill="#0B092C"/>
<circle cx="48" cy="48" r="46.5" transform="matrix(-1 0 0 1 96 0)" stroke="#5EC7CD" stroke-opacity="0.6" stroke-width="3"/>
</g>
<path id="Vector" d="M64.7742 38.3226H58.3226V35.8903L56.5503 35.4206C56.4226 35.0406 56.2716 34.6735 56.1 34.3239L57.0187 32.7419L53.58 29.3026L51.9987 30.2219C51.6477 30.0497 51.2813 29.8994 50.9019 29.771L50.4323 28H45.5677L45.0981 29.7723C44.7187 29.9 44.3523 30.051 44.0013 30.2232L42.42 29.3039L38.9813 32.7432L39.9 34.3252C39.7277 34.6748 39.5774 35.0419 39.4497 35.4219L37.6774 35.8903V38.3226H31.2258C29.4471 38.3226 28 39.7697 28 41.5484V60.9032C28 62.6819 29.4471 64.129 31.2258 64.129H39.6129V66.7097H37.0323V68H58.9677V66.7097H56.3871V64.129H64.7742C66.5529 64.129 68 62.6819 68 60.9032V41.5484C68 39.7697 66.5529 38.3226 64.7742 38.3226ZM38.9677 36.8839L40.4735 36.4852L40.5761 36.1368C40.7355 35.5968 40.9458 35.0852 41.2026 34.6168L41.3768 34.2974L40.5961 32.9535L42.631 30.9187L43.9742 31.6994L44.2935 31.5245C44.7639 31.2677 45.2748 31.0574 45.8129 30.8994L46.1613 30.7968L46.5613 29.2903H49.4394L49.8387 30.7968L50.1871 30.8994C50.7252 31.0574 51.2368 31.2677 51.7064 31.5245L52.0258 31.6994L53.369 30.9187L55.4039 32.9535L54.6232 34.2974L54.7974 34.6168C55.0535 35.0858 55.2645 35.5974 55.4239 36.1368L55.5265 36.4852L57.0323 36.8839V39.7619L55.5265 40.1606L55.4239 40.509C55.2645 41.049 55.0542 41.5606 54.7974 42.029L54.6232 42.3484L55.4039 43.6923L53.8064 45.2897V42.8387C53.8064 42.3581 53.7413 41.8935 53.631 41.4465C54.1606 40.4929 54.4516 39.4226 54.4516 38.3226C54.4516 34.7652 51.5574 31.871 48 31.871C44.4426 31.871 41.5484 34.7652 41.5484 38.3226C41.5484 39.4219 41.8394 40.4916 42.3697 41.4465C42.2587 41.8935 42.1935 42.3581 42.1935 42.8387V45.2897L40.5955 43.6916L41.3761 42.3477L41.2019 42.0284C40.9458 41.5594 40.7348 41.0477 40.5755 40.5084L40.4729 40.16L38.9677 39.7613V36.8839ZM44.129 46.5303C43.7452 46.3065 43.4839 45.8948 43.4839 45.4194C43.4839 44.9439 43.7452 44.5323 44.129 44.3084V46.5303ZM42.8387 38.3226C42.8387 35.4768 45.1542 33.1613 48 33.1613C50.8458 33.1613 53.1613 35.4768 53.1613 38.3226C53.1613 38.8284 53.0832 39.3258 52.9406 39.8032C51.9174 38.1439 50.0884 37.0323 48 37.0323C45.9116 37.0323 44.0832 38.1439 43.06 39.8032C42.9168 39.3252 42.8387 38.8277 42.8387 38.3226ZM51.2258 42.8387H51.1148C50.1103 42.8387 49.1658 42.4477 48.4561 41.7374L48 41.2806L47.5439 41.7374C46.8335 42.4477 45.8897 42.8387 44.8852 42.8387H44.7742C44.3019 42.8387 43.8652 42.9755 43.4839 43.1974V42.8387C43.4839 40.3484 45.5103 38.3226 48 38.3226C50.4897 38.3226 52.5161 40.3484 52.5161 42.8387V43.1974C52.1348 42.9755 51.6981 42.8387 51.2258 42.8387ZM49.2903 50.3658L48 52.0858L46.7097 50.3658V50.3548C47.1142 50.4987 47.5471 50.5806 48 50.5806C48.4529 50.5806 48.8858 50.4981 49.2903 50.3548V50.3658ZM45.8387 51.3548L47.0968 53.0323L45.7484 54.0432L44.9613 51.6832L45.8387 51.3548ZM43.7529 52.1368L45.0903 56.1503L48 53.9677L50.9097 56.1497L52.2471 52.1361L53.1955 52.4916C53.9471 52.7735 54.4516 53.5019 54.4516 54.3045V56.3871H41.5484V54.3045C41.5484 53.5019 42.0529 52.7735 42.8045 52.4916L43.7529 52.1368ZM50.2516 54.0432L48.9032 53.0323L50.1613 51.3548L51.0387 51.6839L50.2516 54.0432ZM48 49.2903C46.5768 49.2903 45.4194 48.1329 45.4194 46.7097V44.0852C46.3639 43.9858 47.2548 43.6413 48 43.0555C48.7452 43.6419 49.6361 43.9858 50.5806 44.0852V46.7097C50.5806 48.1329 49.4232 49.2903 48 49.2903ZM51.871 44.3084C52.2548 44.5323 52.5161 44.9439 52.5161 45.4194C52.5161 45.8948 52.2548 46.3065 51.871 46.5303V44.3084ZM31.2258 39.6129H37.6774V40.7548L39.4497 41.2245C39.5774 41.6045 39.7284 41.9716 39.9 42.3213L38.9813 43.9032L42.42 47.3426L42.8329 47.1026C43.2155 47.5439 43.7387 47.8542 44.3387 47.9568C44.5548 48.5897 44.931 49.1484 45.4194 49.5871V50.1335L42.351 51.2839C41.0994 51.7535 40.2581 52.9677 40.2581 54.3045V57.6774H55.7419V54.3045C55.7419 52.9677 54.9006 51.7535 53.649 51.2832L50.5806 50.1335V49.5871C51.069 49.149 51.4452 48.5903 51.6613 47.9561C52.2606 47.8535 52.7839 47.5426 53.1665 47.1019L53.5794 47.3419L57.0181 43.9026L56.0994 42.3206C56.2716 41.971 56.4219 41.6039 56.5497 41.2239L58.3226 40.7548V39.6129H64.7742C65.8413 39.6129 66.7097 40.4813 66.7097 41.5484V58.9677H29.2903V41.5484C29.2903 40.4813 30.1587 39.6129 31.2258 39.6129ZM55.0968 66.7097H40.9032V64.129H55.0968V66.7097ZM64.7742 62.8387H31.2258C30.1587 62.8387 29.2903 61.9703 29.2903 60.9032V60.2581H66.7097V60.9032C66.7097 61.9703 65.8413 62.8387 64.7742 62.8387Z" fill="#5EC7CD"/>
</g>
</svg>
