<svg width="96" height="96" viewBox="0 0 96 96" fill="none" xmlns="http://www.w3.org/2000/svg">
<g id="04">
<g id="Ellipse 267">
<circle cx="48" cy="48" r="48" transform="matrix(-1 0 0 1 96 0)" fill="#1B1949"/>
<circle cx="48" cy="48" r="47.25" transform="matrix(-1 0 0 1 96 0)" stroke="#5EC7CD" stroke-opacity="0.25" stroke-width="1.5"/>
</g>
<path id="Vector" d="M65.1479 40.8482H30.8952V37.9962H65.1479V32.3966C65.1479 31.9886 64.9858 31.5973 64.6973 31.3088C64.4088 31.0203 64.0176 30.8582 63.6096 30.8582H32.4335C32.0255 30.8582 31.6342 31.0203 31.3457 31.3088C31.0572 31.5973 30.8952 31.9886 30.8952 32.3966L30.8552 63.5696C30.8544 63.7718 30.8936 63.9722 30.9706 64.1592C31.0476 64.3462 31.1609 64.5161 31.3039 64.6592C31.4469 64.8022 31.6168 64.9155 31.8038 64.9925C31.9909 65.0695 32.1913 65.1087 32.3935 65.1079H60.739C60.9265 65.1079 61.1122 65.1448 61.2854 65.2165C61.4586 65.2882 61.616 65.3934 61.7486 65.526C61.8812 65.6585 61.9864 65.8159 62.0582 65.9891C62.1299 66.1623 62.1668 66.348 62.1668 66.5355C62.1668 66.723 62.1299 66.9086 62.0582 67.0819C61.9864 67.2551 61.8812 67.4125 61.7486 67.545C61.616 67.6776 61.4586 67.7828 61.2854 67.8545C61.1122 67.9262 60.9265 67.9631 60.739 67.9631H31.0798H31.0736C30.2582 67.9623 29.4764 67.6378 28.9001 67.0609C28.3237 66.4839 28 65.7018 28 64.8864L28.04 31.0767C28.04 30.2607 28.3641 29.4781 28.9411 28.9011C29.5181 28.3241 30.3007 28 31.1167 28H64.9233C65.7393 28 66.5219 28.3241 67.0989 28.9011C67.6758 29.4781 68 30.2607 68 31.0767V60.659C67.983 61.0258 67.8253 61.3719 67.5597 61.6254C67.2941 61.8789 66.9411 62.0204 66.574 62.0204C66.2068 62.0204 65.8538 61.8789 65.5882 61.6254C65.3226 61.3719 65.165 61.0258 65.1479 60.659V40.8482ZM35.1779 36.2363C34.9851 36.2452 34.7924 36.215 34.6116 36.1474C34.4308 36.0798 34.2655 35.9762 34.1259 35.8429C33.9863 35.7096 33.8751 35.5493 33.7992 35.3718C33.7232 35.1943 33.6841 35.0033 33.6841 34.8102C33.6841 34.6172 33.7232 34.4261 33.7992 34.2487C33.8751 34.0712 33.9863 33.9109 34.1259 33.7776C34.2655 33.6443 34.4308 33.5407 34.6116 33.4731C34.7924 33.4055 34.9851 33.3752 35.1779 33.3842C35.5447 33.4012 35.8907 33.5589 36.1443 33.8245C36.3978 34.0901 36.5392 34.4431 36.5392 34.8102C36.5392 35.1774 36.3978 35.5304 36.1443 35.796C35.8907 36.0616 35.5447 36.2192 35.1779 36.2363ZM43.7403 36.2363C43.5475 36.2452 43.3548 36.215 43.174 36.1474C42.9932 36.0798 42.828 35.9762 42.6883 35.8429C42.5487 35.7096 42.4375 35.5493 42.3616 35.3718C42.2856 35.1943 42.2465 35.0033 42.2465 34.8102C42.2465 34.6172 42.2856 34.4261 42.3616 34.2487C42.4375 34.0712 42.5487 33.9109 42.6883 33.7776C42.828 33.6443 42.9932 33.5407 43.174 33.4731C43.3548 33.4055 43.5475 33.3752 43.7403 33.3842C44.1071 33.4012 44.4532 33.5589 44.7067 33.8245C44.9602 34.0901 45.1017 34.4431 45.1017 34.8102C45.1017 35.1774 44.9602 35.5304 44.7067 35.796C44.4532 36.0616 44.1071 36.2192 43.7403 36.2363ZM39.4576 36.2363C39.2647 36.2452 39.0721 36.215 38.8913 36.1474C38.7104 36.0798 38.5452 35.9762 38.4056 35.8429C38.2659 35.7096 38.1548 35.5493 38.0788 35.3718C38.0029 35.1943 37.9637 35.0033 37.9637 34.8102C37.9637 34.6172 38.0029 34.4261 38.0788 34.2487C38.1548 34.0712 38.2659 33.9109 38.4056 33.7776C38.5452 33.6443 38.7104 33.5407 38.8913 33.4731C39.0721 33.4055 39.2647 33.3752 39.4576 33.3842C39.8243 33.4012 40.1704 33.5589 40.4239 33.8245C40.6775 34.0901 40.8189 34.4431 40.8189 34.8102C40.8189 35.1774 40.6775 35.5304 40.4239 35.796C40.1704 36.0616 39.8243 36.2192 39.4576 36.2363ZM40.9252 46.7586C41.2267 46.4601 42.0235 46.4601 42.3251 46.7586C42.6266 47.057 42.6266 47.9985 42.3251 48.3215L37.67 52.8473L42.2081 57.1454C42.5097 57.4439 42.5496 58.2961 42.2081 58.6315C41.7959 59.0407 40.9528 58.9761 40.6698 58.6992L35.3687 53.4073C35.2246 53.2621 35.1437 53.0658 35.1437 52.8612C35.1437 52.6566 35.2246 52.4603 35.3687 52.3151L40.9252 46.7586ZM55.3733 46.7586L60.9298 52.3151C61.0748 52.4604 61.1563 52.6574 61.1563 52.8627C61.1563 53.068 61.0748 53.265 60.9298 53.4104L55.6256 58.6992C55.3456 58.9761 54.5487 59.1515 54.0872 58.6992C53.6534 58.2684 53.7888 57.3824 54.0872 57.0839L58.6469 52.8473L53.9395 48.2754C53.638 47.9523 53.5396 47.1554 53.9395 46.7586C54.3303 46.374 55.0718 46.4601 55.3733 46.7586ZM49.666 45.6509C49.8199 45.251 50.5675 44.9987 51.0444 45.1771C51.4997 45.3464 51.7674 45.9771 51.6413 46.377L46.6016 60.256C46.4478 60.6559 45.7309 60.8129 45.3279 60.6652C44.9002 60.5144 44.4357 59.9268 44.5895 59.5268L49.666 45.6509Z" fill="white" fill-opacity="0.25"/>
</g>
</svg>
