<svg width="96" height="96" viewBox="0 0 96 96" fill="none" xmlns="http://www.w3.org/2000/svg">
<g id="Group 495">
<g id="Ellipse 269">
<circle cx="48" cy="48" r="48" transform="matrix(-1 0 0 1 96 0)" fill="#1B1949"/>
<circle cx="48" cy="48" r="47.25" transform="matrix(-1 0 0 1 96 0)" stroke="#5EC7CD" stroke-opacity="0.25" stroke-width="1.5"/>
</g>
<path id="Vector" d="M40.993 29.6776C42.5501 29.6776 43.8087 30.9297 43.8087 32.4804V40.8599C43.8078 41.2288 43.7343 41.5939 43.5924 41.9344C43.4504 42.275 43.2428 42.5842 42.9813 42.8444C42.7199 43.1047 42.4097 43.3109 42.0685 43.4513C41.7274 43.5917 41.3619 43.6635 40.993 43.6627H33.4707C33.102 43.6635 32.7367 43.5917 32.3957 43.4512C32.0547 43.3108 31.7448 43.1045 31.4836 42.8442C31.2224 42.5839 31.0151 42.2747 30.8734 41.9342C30.7318 41.5937 30.6587 41.2287 30.6583 40.8599V32.4804C30.6583 30.9329 31.9168 29.6776 33.4707 29.6776H40.993ZM40.993 52.0743C42.5501 52.0743 43.8087 53.3264 43.8087 54.8771V63.2566C43.8078 63.6255 43.7343 63.9906 43.5924 64.3311C43.4504 64.6716 43.2428 64.9808 42.9813 65.2411C42.7199 65.5014 42.4097 65.7076 42.0685 65.848C41.7274 65.9884 41.3619 66.0602 40.993 66.0593H33.4707C33.102 66.0602 32.7367 65.9883 32.3957 65.8479C32.0547 65.7075 31.7448 65.5012 31.4836 65.2409C31.2224 64.9806 31.0151 64.6714 30.8734 64.3309C30.7318 63.9904 30.6587 63.6253 30.6583 63.2566V54.8771C30.6583 53.3264 31.9168 52.0743 33.4707 52.0743H40.993ZM62.5325 29.6776C64.0864 29.6776 65.3449 30.9297 65.3449 32.4804V40.8599C65.3432 41.6044 65.046 42.3178 64.5187 42.8433C63.9913 43.3688 63.277 43.6635 62.5325 43.6627H55.0102C54.6412 43.664 54.2755 43.5924 53.9342 43.4522C53.5928 43.3119 53.2825 43.1057 53.021 42.8454C52.7594 42.585 52.5518 42.2756 52.41 41.935C52.2682 41.5943 52.195 41.2289 52.1946 40.8599V32.4804C52.1946 30.9329 53.4563 29.6776 55.0102 29.6776H62.5325ZM33.124 46.3403H41.3398C44.1714 46.3403 46.4638 44.0608 46.4638 41.2452V32.0951C46.4625 31.424 46.3289 30.7596 46.0706 30.1401C45.8123 29.5207 45.4343 28.9582 44.9584 28.485C44.4825 28.0117 43.9179 27.637 43.2969 27.3822C42.676 27.1274 42.0109 26.9975 41.3398 27H33.1272C30.2955 27 28 29.2795 28 32.0984V41.2452C28.0013 41.9163 28.1349 42.5807 28.3932 43.2002C28.6515 43.8196 29.0294 44.3821 29.5054 44.8554C29.9813 45.3286 30.5459 45.7034 31.1668 45.9582C31.7877 46.213 32.4528 46.3428 33.124 46.3403ZM33.124 68.7369H41.3398C44.1714 68.7369 46.4638 66.4575 46.4638 63.6386V54.4918C46.4625 53.8206 46.3289 53.1563 46.0706 52.5368C45.8123 51.9173 45.4343 51.3549 44.9584 50.8816C44.4825 50.4084 43.9179 50.0336 43.2969 49.7788C42.676 49.524 42.0109 49.3942 41.3398 49.3967H33.1272C30.2955 49.3967 28.0032 51.6762 28.0032 54.4918V63.6418C28.0045 64.313 28.1381 64.9773 28.3964 65.5968C28.6547 66.2163 29.0326 66.7788 29.5086 67.252C29.9845 67.7253 30.5491 68.1 31.17 68.3548C31.791 68.6096 32.456 68.7395 33.1272 68.7369H33.124ZM54.6667 46.3403H62.876C65.7077 46.3403 68 44.0608 68 41.2452V32.0951C67.9987 31.424 67.8651 30.7596 67.6068 30.1401C67.3485 29.5207 66.9706 28.9582 66.4946 28.485C66.0187 28.0117 65.4541 27.637 64.8332 27.3822C64.2123 27.1274 63.5472 26.9975 62.876 27H54.6635C51.8318 27 49.5427 29.2795 49.5427 32.0984V41.2452C49.5439 41.9163 49.6775 42.5807 49.9358 43.2002C50.1941 43.8196 50.5721 44.3821 51.048 44.8554C51.524 45.3286 52.0885 45.7034 52.7095 45.9582C53.3304 46.213 53.9955 46.3428 54.6667 46.3403ZM62.5228 66.0433H54.6602C52.9651 66.0433 52.2331 65.337 52.2331 63.6386V54.4918C52.2331 52.7999 52.9683 52.0614 54.6635 52.0614H62.876C64.5776 52.0614 65.3417 52.7966 65.3417 54.4886V63.645C65.3417 64.2069 65.942 64.8522 66.7254 64.8522C67.5088 64.8522 68 64.2069 68 63.645V54.4886C67.9983 53.8177 67.8644 53.1537 67.6059 52.5346C67.3474 51.9155 66.9694 51.3534 66.4935 50.8805C66.0176 50.4076 65.4532 50.0331 64.8324 49.7785C64.2117 49.5239 63.5469 49.3942 62.876 49.3967H54.6635C51.8318 49.3967 49.5394 51.6762 49.5394 54.4918V63.6418C49.5407 64.3127 49.6742 64.9768 49.9323 65.5961C50.1904 66.2153 50.5681 66.7777 51.0437 67.2509C51.5193 67.7241 52.0835 68.0989 52.704 68.3539C53.3246 68.6089 53.9893 68.739 54.6602 68.7369H62.8503C63.441 68.7369 64.1987 68.2554 64.1987 67.3853C64.1971 67.0332 64.0578 66.6957 63.8107 66.4449C63.5635 66.1941 63.228 66.05 62.876 66.0433H62.526H62.5228Z" fill="white" fill-opacity="0.25"/>
</g>
</svg>
