<svg width="96" height="96" viewBox="0 0 96 96" fill="none" xmlns="http://www.w3.org/2000/svg">
<g id="02">
<g id="Ellipse 271">
<circle cx="48" cy="48" r="48" transform="matrix(-1 0 0 1 96 0)" fill="#1B1949"/>
<circle cx="48" cy="48" r="47.25" transform="matrix(-1 0 0 1 96 0)" stroke="#5EC7CD" stroke-opacity="0.25" stroke-width="1.5"/>
</g>
<g id="Group">
<path id="Vector" d="M37.9048 31L28 48.4603L37.9048 65.9206H58.0635L68 48.4603L58.0952 31H37.9048ZM56.6032 63.381H39.3968L30.9206 48.4603L39.3968 33.5397H56.6032L65.0794 48.4603L56.6032 63.381Z" fill="white" fill-opacity="0.4"/>
<path id="Vector_2" d="M47.9993 39.2578C42.92 39.2578 38.793 43.3848 38.793 48.4642C38.793 53.5435 42.92 57.6705 47.9993 57.6705C53.0787 57.6705 57.2057 53.5435 57.2057 48.4642C57.2057 43.3848 53.0787 39.2578 47.9993 39.2578ZM47.9993 55.1308C44.3168 55.1308 41.3327 52.1467 41.3327 48.4642C41.3327 44.7816 44.3168 41.7975 47.9993 41.7975C51.6819 41.7975 54.666 44.7816 54.666 48.4642C54.666 52.1467 51.6819 55.1308 47.9993 55.1308Z" fill="white" fill-opacity="0.4"/>
</g>
</g>
</svg>
