<svg width="96" height="96" viewBox="0 0 96 96" fill="none" xmlns="http://www.w3.org/2000/svg">
<g id="06">
<g id="Ellipse 266">
<circle cx="48" cy="48" r="48" transform="matrix(-1 0 0 1 96 0)" fill="#1B1949"/>
<circle cx="48" cy="48" r="47.25" transform="matrix(-1 0 0 1 96 0)" stroke="#5EC7CD" stroke-opacity="0.25" stroke-width="1.5"/>
</g>
<path id="Vector" d="M62.1733 35.4842H33.8235C33.0492 35.4842 32.534 34.969 32.534 34.1947C32.534 33.4236 33.0492 32.9052 33.8235 32.9052H62.1733C62.9476 32.9052 63.4628 33.4236 63.4628 34.1947C63.4628 34.969 62.9476 35.4842 62.1733 35.4842ZM58.308 30.5758H37.6888C36.9145 30.5758 36.3993 30.0638 36.3993 29.2895C36.3993 28.5152 36.9145 28 37.6888 28H58.308C59.0791 28 59.5975 28.5152 59.5975 29.2895C59.5975 30.0606 59.0791 30.5758 58.308 30.5758ZM64.1315 66.061H55.9178C55.4074 66.0701 54.9004 65.9762 54.4271 65.785C53.9538 65.5938 53.5239 65.3091 53.1631 64.948C52.8023 64.5869 52.518 64.1568 52.3272 63.6833C52.1364 63.2099 52.0429 62.7028 52.0525 62.1925V58.3272H55.9178C56.4329 58.3272 56.8201 58.0712 57.0793 57.556C57.1885 57.3304 57.2343 57.0792 57.2117 56.8296C57.1892 56.5799 57.0992 56.341 56.9513 56.1385L49.2143 47.1153C49.1016 46.9655 48.9556 46.8441 48.7879 46.7604C48.6202 46.6767 48.4354 46.6332 48.248 46.6332C48.0606 46.6332 47.8757 46.6767 47.708 46.7604C47.5403 46.8441 47.3944 46.9655 47.2817 47.1153L39.5511 56.1385C39.1639 56.5225 39.1639 57.0409 39.4231 57.556C39.5511 58.068 39.935 58.3272 40.4534 58.3272H44.3187V62.1925C44.3187 64.3843 42.642 66.061 40.4534 66.061H31.8653C31.0942 66.061 30.5758 65.5458 30.5758 64.7715V41.5733C30.5758 40.8054 31.0942 40.287 31.8653 40.287H64.1315C64.9026 40.287 65.4178 40.8022 65.4178 41.5765V45.4386C65.4178 46.2129 65.9362 46.7281 66.7073 46.7281C67.4816 46.7281 67.9968 46.2129 67.9968 45.4386V41.5765C67.9968 39.3847 66.3201 37.7112 64.1315 37.7112H31.8653C29.6767 37.7112 28 39.3847 28 41.5765V64.7715C28 66.9633 29.6767 68.6367 31.8653 68.6367H40.4566C41.305 68.6449 42.1465 68.4837 42.9318 68.1627C43.7172 67.8417 44.4306 67.3673 45.0304 66.7672C45.6302 66.1671 46.1042 65.4534 46.4249 64.6679C46.7455 63.8824 46.9062 63.0408 46.8977 62.1925V57.0409C46.8977 56.2665 46.3857 55.7514 45.6082 55.7514H43.2948L48.1904 49.9534L53.086 55.7514H50.7662C49.995 55.7514 49.4799 56.2633 49.4799 57.0409V62.1925C49.4799 65.8018 52.3149 68.6367 55.921 68.6367H64.1347C66.3233 68.6367 68 66.9633 68 64.7715V50.5966C68 49.8223 67.4848 49.3071 66.7105 49.3071C65.9394 49.3071 65.421 49.8223 65.421 50.5966V64.7715C65.421 65.5458 64.909 66.061 64.1347 66.061H64.1315Z" fill="white" fill-opacity="0.25"/>
</g>
</svg>
