<svg width="96" height="96" viewBox="0 0 96 96" fill="none" xmlns="http://www.w3.org/2000/svg">
<g id="05">
<g id="Ellipse 268">
<circle cx="48" cy="48" r="48" transform="matrix(-1 0 0 1 96 0)" fill="#1B1949"/>
<circle cx="48" cy="48" r="47.25" transform="matrix(-1 0 0 1 96 0)" stroke="#5EC7CD" stroke-opacity="0.25" stroke-width="1.5"/>
</g>
<path id="Vector" d="M58.7294 60.5307C58.7657 59.6394 59.1453 58.7966 59.7888 58.1788C60.4323 57.561 61.2898 57.2159 62.1819 57.2159C63.074 57.2159 63.9315 57.561 64.575 58.1788C65.2185 58.7966 65.5981 59.6394 65.6344 60.5307C65.6343 61.4463 65.2705 62.3244 64.6231 62.9718C63.9756 63.6192 63.0975 63.9829 62.1819 63.9829C61.2663 63.9829 60.3882 63.6192 59.7408 62.9718C59.0933 62.3244 58.7295 61.4463 58.7294 60.5307ZM47.9828 64.0204C46.0807 64.0204 44.5332 62.4758 44.5332 60.5765C44.5332 59.6616 44.8966 58.7842 45.5436 58.1372C46.1905 57.4903 47.0679 57.1269 47.9828 57.1269C48.8977 57.1269 49.7752 57.4903 50.4221 58.1372C51.069 58.7842 51.4325 59.6616 51.4325 60.5765C51.4325 62.4758 49.885 64.0204 47.9828 64.0204ZM48.02 31.2087C49.9193 31.2087 51.4668 32.7533 51.4668 34.6469C51.441 35.5435 51.0667 36.3947 50.4233 37.0197C49.78 37.6447 48.9184 37.9944 48.0215 37.9944C47.1245 37.9944 46.2629 37.6447 45.6196 37.0197C44.9762 36.3947 44.6019 35.5435 44.5761 34.6469C44.5761 32.7504 46.1207 31.2087 48.02 31.2087ZM33.6608 63.9489C31.7586 63.9489 30.2111 62.4043 30.2111 60.5021C30.237 59.6041 30.6119 58.7514 31.2563 58.1253C31.9007 57.4992 32.7637 57.149 33.6622 57.149C34.5606 57.149 35.4237 57.4992 36.0681 58.1253C36.7125 58.7514 37.0874 59.6041 37.1133 60.5021C37.1133 62.4043 35.5629 63.9489 33.6608 63.9489ZM63.3719 45.5279C63.3717 45.2292 63.2558 44.9421 63.0486 44.727C62.8308 44.5239 62.5455 44.4087 62.2477 44.4037H49.1442V40.2676C50.445 40.0026 51.6144 39.2965 52.4546 38.2687C53.2947 37.2408 53.7542 35.9544 53.7551 34.6269C53.7216 33.1231 53.1007 31.6922 52.0253 30.6405C50.9499 29.5889 49.5056 29 48.0014 29C46.4973 29 45.0529 29.5889 43.9775 30.6405C42.9022 31.6922 42.2812 33.1231 42.2477 34.6269C42.2477 37.4358 44.1985 39.7699 46.8673 40.2676C46.8616 40.2819 46.79 44.4009 46.79 44.4009H33.7523C33.604 44.3987 33.4567 44.4261 33.3192 44.4816C33.1816 44.5371 33.0566 44.6196 32.9514 44.7241C32.7367 44.9365 32.6118 45.2232 32.6024 45.525L32.6281 54.973C30.3112 55.3448 28 57.7361 28 60.5937C28 63.763 30.5801 66.3431 33.7523 66.3431C36.9273 66.3431 39.5074 63.763 39.5074 60.5937C39.5074 57.8305 37.4308 55.4535 35.1224 54.973V47.0639H46.8673V54.5525C46.8673 54.6984 46.9016 54.8299 46.9474 54.9529C45.6292 55.1977 44.4381 55.8955 43.5799 56.9255C42.7218 57.9555 42.2505 59.253 42.2477 60.5937C42.3052 62.0812 42.9365 63.4887 44.0093 64.5208C45.082 65.5529 46.5128 66.1294 48.0014 66.1294C49.4901 66.1294 50.9209 65.5529 51.9936 64.5208C53.0664 63.4887 53.6977 62.0812 53.7551 60.5937C53.7551 57.7819 51.7185 55.4449 49.0412 54.9529C49.0908 54.8252 49.117 54.6895 49.1184 54.5525V47.0639H60.8747V54.973C58.3575 55.525 56.4926 57.8334 56.4926 60.5937C56.55 62.0812 57.1814 63.4887 58.2541 64.5208C59.3269 65.5529 60.7576 66.1294 62.2463 66.1294C63.7349 66.1294 65.1657 65.5529 66.2385 64.5208C67.3112 63.4887 67.9425 62.0812 68 60.5937C68 57.739 65.7574 55.3277 63.3719 54.9415C63.3862 54.8986 63.3719 45.525 63.3719 45.525V45.5279Z" fill="white" fill-opacity="0.25"/>
</g>
</svg>
